<svg width="11" height="11" viewBox="0 0 11 11" fill="none" xmlns="http://www.w3.org/2000/svg">
<path d="M5.24468 5.81293C5.18786 5.81293 5.13104 5.79983 5.07859 5.76923L1.21933 3.53585C1.06199 3.44407 1.00953 3.243 1.10131 3.08566C1.1931 2.92832 1.38977 2.87586 1.55149 2.96765L5.24468 5.10489L8.916 2.98077C9.07334 2.88899 9.27439 2.94581 9.36618 3.09879C9.45796 3.25613 9.40114 3.45716 9.24817 3.54895L5.41514 5.76923C5.35832 5.79546 5.30149 5.81293 5.24468 5.81293Z" fill="#1A1A19"/>
<path d="M5.24479 9.77275C5.06559 9.77275 4.91699 9.62415 4.91699 9.44495V5.48079C4.91699 5.30159 5.06559 5.15299 5.24479 5.15299C5.42399 5.15299 5.57259 5.30159 5.57259 5.48079V9.44495C5.57259 9.62415 5.42399 9.77275 5.24479 9.77275Z" fill="#1A1A19"/>
<path d="M5.24476 9.94318C4.86015 9.94318 4.4799 9.86013 4.17833 9.69405L1.84441 8.39598C1.21067 8.04633 0.716797 7.20279 0.716797 6.47727V4.00785C0.716797 3.28233 1.21067 2.44319 1.84441 2.08917L4.17833 0.795452C4.7771 0.463284 5.71242 0.463284 6.3112 0.795452L8.64511 2.09352C9.27885 2.44317 9.77273 3.2867 9.77273 4.01223V6.48164C9.77273 7.20717 9.27885 8.04631 8.64511 8.40033L6.3112 9.69405C6.00962 9.86013 5.62938 9.94318 5.24476 9.94318ZM5.24476 1.20192C4.96941 1.20192 4.69844 1.25874 4.49739 1.368L2.16347 2.66607C1.74389 2.90208 1.37239 3.52709 1.37239 4.01223V6.48164C1.37239 6.96241 1.74389 7.59176 2.16347 7.82778L4.49739 9.12587C4.89512 9.34877 5.59441 9.34877 5.99214 9.12587L8.32605 7.82778C8.74563 7.59176 9.11713 6.96678 9.11713 6.48164V4.01223C9.11713 3.53146 8.74563 2.90208 8.32605 2.66607L5.99214 1.368C5.79109 1.25874 5.52011 1.20192 5.24476 1.20192Z" fill="#1A1A19"/>
<path d="M7.43011 6.11453C7.25091 6.11453 7.10231 5.96593 7.10231 5.78673V4.3794L3.1163 2.08045C2.95896 1.98866 2.9065 1.78761 2.99829 1.63463C3.09007 1.47729 3.28676 1.42484 3.4441 1.51662L7.59182 3.91174C7.69235 3.96856 7.75791 4.07781 7.75791 4.19582V5.79548C7.75791 5.96594 7.60931 6.11453 7.43011 6.11453Z" fill="#1A1A19"/>
</svg>
