<svg width="10" height="9" viewBox="0 0 10 9" fill="none" xmlns="http://www.w3.org/2000/svg">
<path d="M5.24481 8.46241C5.10932 8.46241 4.97821 8.44493 4.86894 8.4056C3.19936 7.83304 0.546387 5.8007 0.546387 2.79808C0.546387 1.26836 1.78327 0.0270996 3.30425 0.0270996C4.04289 0.0270996 4.73345 0.315561 5.24481 0.831295C5.75618 0.315561 6.44674 0.0270996 7.18537 0.0270996C8.70635 0.0270996 9.94324 1.27273 9.94324 2.79808C9.94324 5.80507 7.29027 7.83304 5.62069 8.4056C5.51142 8.44493 5.3803 8.46241 5.24481 8.46241ZM3.30425 0.682694C2.14604 0.682694 1.20198 1.63112 1.20198 2.79808C1.20198 5.78322 4.07348 7.44406 5.0831 7.78934C5.16177 7.81556 5.33223 7.81556 5.4109 7.78934C6.41614 7.44406 9.29202 5.78759 9.29202 2.79808C9.29202 1.63112 8.34796 0.682694 7.18974 0.682694C6.52541 0.682694 5.90915 0.993009 5.51142 1.5306C5.38904 1.69668 5.10932 1.69668 4.98695 1.5306C4.58048 0.988638 3.96859 0.682694 3.30425 0.682694Z" fill="#1A1A19"/>
</svg>
