<svg width="40" height="40" viewBox="0 0 40 40" fill="none" xmlns="http://www.w3.org/2000/svg">
<path d="M16.32 23L15.712 21.352H13.504L12.896 23H12L14.168 17.264H15.064L17.224 23H16.32ZM14.896 18.992C14.88 18.9333 14.8507 18.8453 14.808 18.728C14.7707 18.6053 14.7333 18.4827 14.696 18.36C14.6587 18.232 14.6293 18.128 14.608 18.048C14.5813 18.1547 14.5493 18.272 14.512 18.4C14.48 18.5227 14.448 18.6373 14.416 18.744C14.384 18.8453 14.3573 18.928 14.336 18.992L13.76 20.6H15.472L14.896 18.992ZM15.464 15.768C15.464 15.9707 15.4053 16.1307 15.288 16.248C15.1707 16.36 15.0133 16.44 14.816 16.488L14.776 16.872H14.272L14.208 16.216C14.4 16.184 14.5467 16.1387 14.648 16.08C14.7493 16.016 14.8 15.9253 14.8 15.808C14.8 15.696 14.7573 15.6187 14.672 15.576C14.5867 15.5333 14.48 15.512 14.352 15.512C14.272 15.512 14.192 15.5173 14.112 15.528C14.0373 15.5333 13.9733 15.544 13.92 15.56V15.072C13.9733 15.0507 14.0427 15.0347 14.128 15.024C14.2187 15.0133 14.32 15.008 14.432 15.008C14.7627 15.008 15.016 15.072 15.192 15.2C15.3733 15.3227 15.464 15.512 15.464 15.768ZM20.0824 18.608C20.5837 18.608 20.9677 18.7333 21.2344 18.984C21.501 19.2347 21.6344 19.6373 21.6344 20.192V23H20.7944V20.312C20.7944 19.976 20.7224 19.7253 20.5784 19.56C20.4397 19.3893 20.2157 19.304 19.9064 19.304C19.469 19.304 19.165 19.4347 18.9944 19.696C18.829 19.9573 18.7464 20.3333 18.7464 20.824V23H17.8984V18.688H18.5704L18.6904 19.264H18.7384C18.8344 19.1147 18.9517 18.992 19.0904 18.896C19.229 18.8 19.3837 18.728 19.5544 18.68C19.725 18.632 19.901 18.608 20.0824 18.608ZM23.7854 18.544C23.7854 18.6773 23.7801 18.8107 23.7694 18.944C23.7588 19.0773 23.7481 19.1867 23.7374 19.272H23.7934C23.8841 19.1227 23.9961 19 24.1294 18.904C24.2681 18.808 24.4201 18.736 24.5854 18.688C24.7561 18.64 24.9294 18.616 25.1054 18.616C25.4468 18.616 25.7321 18.672 25.9614 18.784C26.1961 18.8907 26.3721 19.0613 26.4894 19.296C26.6121 19.5253 26.6734 19.824 26.6734 20.192V23H25.8334V20.312C25.8334 19.976 25.7614 19.7253 25.6174 19.56C25.4788 19.3893 25.2548 19.304 24.9454 19.304C24.6521 19.304 24.4201 19.3627 24.2494 19.48C24.0841 19.5973 23.9641 19.7707 23.8894 20C23.8201 20.224 23.7854 20.5013 23.7854 20.832V23H22.9374V16.92H23.7854V18.544Z" fill="#787878"/>
<rect x="0.25" y="0.25" width="39.5" height="39.5" rx="19.75" stroke="#B4B3B2" stroke-width="0.5" stroke-dasharray="1 1"/>
</svg>
