<svg width="24" height="23" viewBox="0 0 24 23" fill="none" xmlns="http://www.w3.org/2000/svg">
<g clip-path="url(#clip0_134_2362)">
<path d="M13.7475 1.91667C14.1498 1.91677 14.5418 2.04344 14.8681 2.27873C15.1944 2.51402 15.4383 2.84601 15.5655 3.22767L16.0858 4.79167H19.2292C19.4833 4.79167 19.7271 4.89263 19.9068 5.07236C20.0865 5.25208 20.1875 5.49583 20.1875 5.75C20.1875 6.00417 20.0865 6.24792 19.9068 6.42764C19.7271 6.60737 19.4833 6.70833 19.2292 6.70833L19.2263 6.77637L18.3954 18.4134C18.3436 19.1385 18.019 19.817 17.4869 20.3124C16.9549 20.8078 16.255 21.0832 15.5281 21.0833H7.59692C6.86998 21.0832 6.17006 20.8078 5.63805 20.3124C5.10604 19.817 4.78144 19.1385 4.72958 18.4134L3.89871 6.77542C3.89697 6.7531 3.89602 6.73072 3.89583 6.70833C3.64167 6.70833 3.39791 6.60737 3.21819 6.42764C3.03847 6.24792 2.9375 6.00417 2.9375 5.75C2.9375 5.49583 3.03847 5.25208 3.21819 5.07236C3.39791 4.89263 3.64167 4.79167 3.89583 4.79167H7.03917L7.55954 3.22767C7.68671 2.84585 7.93083 2.51376 8.2573 2.27845C8.58377 2.04315 8.97603 1.91657 9.37846 1.91667H13.7475ZM17.3096 6.70833H5.81537L6.64146 18.2764C6.65866 18.5181 6.76678 18.7443 6.94406 18.9095C7.12134 19.0747 7.35461 19.1665 7.59692 19.1667H15.5281C15.7704 19.1665 16.0037 19.0747 16.1809 18.9095C16.3582 18.7443 16.4663 18.5181 16.4835 18.2764L17.3096 6.70833ZM9.64583 9.58333C9.88056 9.58336 10.1071 9.66954 10.2825 9.82552C10.4579 9.9815 10.57 10.1964 10.5975 10.4295L10.6042 10.5417V15.3333C10.6039 15.5776 10.5104 15.8125 10.3427 15.9901C10.175 16.1678 9.94584 16.2746 9.702 16.289C9.45816 16.3033 9.21805 16.2239 9.03074 16.0672C8.84343 15.9104 8.72306 15.688 8.69421 15.4455L8.6875 15.3333V10.5417C8.6875 10.2875 8.78847 10.0437 8.96819 9.86402C9.14791 9.6843 9.39167 9.58333 9.64583 9.58333ZM13.4792 9.58333C13.7333 9.58333 13.9771 9.6843 14.1568 9.86402C14.3365 10.0437 14.4375 10.2875 14.4375 10.5417V15.3333C14.4375 15.5875 14.3365 15.8313 14.1568 16.011C13.9771 16.1907 13.7333 16.2917 13.4792 16.2917C13.225 16.2917 12.9812 16.1907 12.8015 16.011C12.6218 15.8313 12.5208 15.5875 12.5208 15.3333V10.5417C12.5208 10.2875 12.6218 10.0437 12.8015 9.86402C12.9812 9.6843 13.225 9.58333 13.4792 9.58333ZM13.7475 3.83333H9.3775L9.05837 4.79167H14.0666L13.7475 3.83333Z" fill="#787878"/>
</g>
<defs>
<clipPath id="clip0_134_2362">
<rect width="23" height="23" fill="white" transform="translate(0.0625)"/>
</clipPath>
</defs>
</svg>
