<svg width="12" height="12" viewBox="0 0 12 12" fill="none" xmlns="http://www.w3.org/2000/svg">
<g clip-path="url(#clip0_60_3693)">
<path d="M10.086 3.375H9.15549L6.87249 5.657C6.95112 5.8574 6.95835 6.07875 6.89297 6.28385C6.82758 6.48895 6.69357 6.66528 6.51346 6.7832C6.33336 6.90111 6.11815 6.95341 5.90402 6.9313C5.68988 6.9092 5.48989 6.81403 5.33767 6.66182C5.18546 6.5096 5.09029 6.30961 5.06819 6.09548C5.04608 5.88134 5.09838 5.66613 5.21629 5.48602C5.3342 5.30592 5.51054 5.17191 5.71564 5.10652C5.92074 5.04114 6.14209 5.04837 6.34249 5.127L8.62499 2.8445V1.914C8.62504 1.78949 8.67449 1.67009 8.76249 1.582L9.62749 0.717C9.64347 0.700842 9.66356 0.689365 9.6856 0.683813C9.70763 0.67826 9.73076 0.678844 9.75249 0.6855C9.79699 0.6985 9.82999 0.7355 9.83899 0.781L10.069 1.9315L11.219 2.1615C11.264 2.1705 11.301 2.2035 11.314 2.248C11.3206 2.26962 11.3211 2.29261 11.3157 2.31453C11.3102 2.33645 11.2989 2.35649 11.283 2.3725L10.4175 3.2375C10.374 3.28108 10.3223 3.31566 10.2654 3.33925C10.2085 3.36284 10.1476 3.37499 10.086 3.375Z" fill="#222222"/>
<path d="M1.3125 6C1.3125 7.24321 1.80636 8.43549 2.68544 9.31457C3.56451 10.1936 4.7568 10.6875 6 10.6875C6.61557 10.6875 7.22511 10.5663 7.79383 10.3307C8.36254 10.0951 8.87929 9.74984 9.31456 9.31457C9.74984 8.87929 10.0951 8.36255 10.3307 7.79383C10.5663 7.22512 10.6875 6.61557 10.6875 6C10.6875 5.551 10.6245 5.117 10.507 4.7065C10.4836 4.61225 10.4978 4.51261 10.5464 4.42855C10.595 4.34449 10.6743 4.28257 10.7677 4.25582C10.861 4.22907 10.9611 4.23956 11.0469 4.28511C11.1326 4.33065 11.1974 4.40769 11.2275 4.5C11.3645 4.977 11.4375 5.48 11.4375 6C11.4375 9.003 9.003 11.4375 6 11.4375C2.997 11.4375 0.5625 9.003 0.5625 6C0.5625 2.997 2.997 0.562503 6 0.562503C6.5075 0.562003 7.012 0.632503 7.5 0.772003C7.54758 0.78535 7.59206 0.80797 7.63087 0.838563C7.66968 0.869155 7.70206 0.907117 7.72615 0.950266C7.75023 0.993415 7.76556 1.0409 7.77123 1.08999C7.77691 1.13908 7.77283 1.18881 7.75922 1.23632C7.74562 1.28383 7.72275 1.32818 7.69195 1.36682C7.66115 1.40546 7.62301 1.43763 7.57973 1.46149C7.53645 1.48534 7.48888 1.5004 7.43976 1.50581C7.39064 1.51122 7.34093 1.50687 7.2935 1.493C6.87285 1.37287 6.43747 1.31211 6 1.3125C4.7568 1.3125 3.56451 1.80636 2.68544 2.68544C1.80636 3.56452 1.3125 4.7568 1.3125 6Z" fill="#222222"/>
<path d="M3.56237 6C3.56377 6.33116 3.63264 6.65857 3.76479 6.96222C3.89695 7.26588 4.0896 7.53941 4.331 7.76612C4.57239 7.99284 4.85746 8.16797 5.1688 8.28083C5.48014 8.3937 5.81121 8.44192 6.14181 8.42256C6.47241 8.40321 6.79559 8.31667 7.09163 8.16824C7.38767 8.01981 7.65035 7.8126 7.86363 7.55926C8.07691 7.30592 8.23633 7.01177 8.33213 6.69477C8.42794 6.37777 8.45814 6.04456 8.42087 5.7155C8.41037 5.64886 8.4181 5.58062 8.44322 5.518C8.46835 5.45539 8.50995 5.40074 8.5636 5.35985C8.61726 5.31895 8.68098 5.29333 8.74801 5.2857C8.81505 5.27807 8.88289 5.28871 8.94437 5.3165C9.06987 5.3725 9.15437 5.492 9.16537 5.629C9.24301 6.28663 9.11383 6.9521 8.79581 7.53292C8.47779 8.11375 7.98672 8.58107 7.39086 8.86993C6.79499 9.15879 6.12394 9.25484 5.47097 9.14472C4.818 9.03461 4.21555 8.7238 3.74737 8.2555C3.27932 7.78771 2.96843 7.18587 2.85783 6.53344C2.74723 5.88101 2.8424 5.21033 3.13013 4.61442C3.41787 4.01851 3.8839 3.52691 4.46361 3.2078C5.04332 2.88868 5.70797 2.75787 6.36537 2.8335C6.41507 2.83811 6.46335 2.8526 6.50737 2.87611C6.5514 2.89962 6.59029 2.93168 6.62176 2.97042C6.65324 3.00916 6.67666 3.05379 6.69067 3.10169C6.70467 3.1496 6.70897 3.19982 6.70331 3.24941C6.69765 3.299 6.68215 3.34696 6.65772 3.39048C6.63328 3.434 6.60041 3.47221 6.56102 3.50286C6.52162 3.53351 6.47651 3.55599 6.42832 3.56898C6.38013 3.58197 6.32983 3.5852 6.28037 3.5785C5.93888 3.53902 5.59291 3.5722 5.26515 3.67587C4.9374 3.77954 4.63527 3.95134 4.37859 4.18002C4.12192 4.40869 3.91651 4.68906 3.77584 5.00272C3.63517 5.31638 3.56242 5.65624 3.56237 6Z" fill="#222222"/>
</g>
<defs>
<clipPath id="clip0_60_3693">
<rect width="12" height="12" fill="white"/>
</clipPath>
</defs>
</svg>
