<svg width="11" height="11" viewBox="0 0 11 11" fill="none" xmlns="http://www.w3.org/2000/svg">
<path d="M5.25363 9.22815C4.23527 9.22815 3.21692 9.06644 2.25101 8.74301C1.88387 8.61626 1.60415 8.3584 1.48178 8.02186C1.35503 7.68532 1.39873 7.31381 1.59978 6.98165L2.1024 6.14686C2.2073 5.97203 2.30345 5.62238 2.30345 5.41696V4.15385C2.30345 2.52798 3.62775 1.20367 5.25363 1.20367C6.8795 1.20367 8.2038 2.52798 8.2038 4.15385V5.41696C8.2038 5.61801 8.29996 5.97203 8.40485 6.15123L8.9031 6.98165C9.09104 7.29633 9.12601 7.67658 8.99926 8.02186C8.87251 8.36714 8.59716 8.62937 8.25188 8.74301C7.29034 9.06644 6.27199 9.22815 5.25363 9.22815ZM5.25363 1.85927C3.99052 1.85927 2.95905 2.88637 2.95905 4.15385V5.41696C2.95905 5.73602 2.82793 6.20805 2.66622 6.48339L2.16359 7.31818C2.06744 7.4799 2.04122 7.65035 2.09803 7.79458C2.15048 7.94318 2.2816 8.05682 2.4608 8.11801C4.28772 8.7299 6.22391 8.7299 8.05083 8.11801C8.20817 8.06556 8.33055 7.94756 8.38737 7.79021C8.44419 7.63287 8.43108 7.46242 8.34366 7.31818L7.84104 6.48339C7.67496 6.1993 7.54821 5.73165 7.54821 5.41259V4.15385C7.54821 2.88637 6.52111 1.85927 5.25363 1.85927Z" fill="#1A1A19"/>
<path d="M6.06642 1.97727C6.03583 1.97727 6.00523 1.9729 5.97464 1.96416C5.84789 1.9292 5.72551 1.90297 5.60751 1.88549C5.236 1.83741 4.87761 1.86364 4.54107 1.96416C4.41869 2.0035 4.28758 1.96416 4.20453 1.87238C4.12149 1.7806 4.09527 1.64948 4.14334 1.53147C4.32254 1.07255 4.7596 0.770981 5.25786 0.770981C5.75611 0.770981 6.19317 1.06818 6.37237 1.53147C6.41607 1.64948 6.39422 1.7806 6.31118 1.87238C6.24562 1.94231 6.15383 1.97727 6.06642 1.97727Z" fill="#1A1A19"/>
<path d="M5.25349 10.2246C4.8208 10.2246 4.40122 10.0498 4.09527 9.74388C3.78933 9.43794 3.6145 9.01836 3.6145 8.58566H4.2701C4.2701 8.84353 4.37499 9.09703 4.55856 9.28059C4.74212 9.46416 4.99562 9.56905 5.25349 9.56905C5.79545 9.56905 6.23688 9.12762 6.23688 8.58566H6.89247C6.89247 9.49038 6.15821 10.2246 5.25349 10.2246Z" fill="#1A1A19"/>
</svg>
