<svg width="11" height="10" viewBox="0 0 11 10" fill="none" xmlns="http://www.w3.org/2000/svg">
<path fill-rule="evenodd" clip-rule="evenodd" d="M7 6C7.66304 6 8.29893 6.26339 8.76777 6.73223C9.23661 7.20107 9.5 7.83696 9.5 8.5V9.5C9.5 9.63261 9.44732 9.75978 9.35355 9.85355C9.25979 9.94732 9.13261 10 9 10C8.86739 10 8.74021 9.94732 8.64645 9.85355C8.55268 9.75978 8.5 9.63261 8.5 9.5V8.5C8.5 8.10217 8.34196 7.72064 8.06066 7.43934C7.77936 7.15803 7.39782 7 7 7H3C2.60218 7 2.22064 7.15803 1.93934 7.43934C1.65804 7.72064 1.5 8.10217 1.5 8.5V9.5C1.5 9.63261 1.44732 9.75978 1.35355 9.85355C1.25979 9.94732 1.13261 10 1 10C0.867392 10 0.740215 9.94732 0.646447 9.85355C0.552678 9.75978 0.5 9.63261 0.5 9.5V8.5C0.5 7.83696 0.763392 7.20107 1.23223 6.73223C1.70107 6.26339 2.33696 6 3 6H7ZM9.707 3.5405C9.79677 3.44987 9.91779 3.39698 10.0453 3.39266C10.1728 3.38833 10.2971 3.4329 10.3928 3.51723C10.4885 3.60157 10.5484 3.71929 10.5601 3.84631C10.5719 3.97333 10.5346 4.10004 10.456 4.2005L10.414 4.248L9 5.6615C8.9139 5.74759 8.79935 5.7993 8.67784 5.80694C8.55633 5.81458 8.4362 5.77762 8.34 5.703L8.293 5.6615L7.586 4.9545C7.49537 4.86473 7.44248 4.74371 7.43816 4.61622C7.43383 4.48874 7.4784 4.36442 7.56273 4.26871C7.64707 4.173 7.76479 4.11315 7.89181 4.1014C8.01883 4.08965 8.14554 4.12689 8.246 4.2055L8.293 4.247L8.6465 4.601L9.707 3.54V3.5405ZM5 0C5.66304 0 6.29893 0.263392 6.76777 0.732233C7.23661 1.20107 7.5 1.83696 7.5 2.5C7.5 3.16304 7.23661 3.79892 6.76777 4.26777C6.29893 4.73661 5.66304 5 5 5C4.33696 5 3.70107 4.73661 3.23223 4.26777C2.76339 3.79892 2.5 3.16304 2.5 2.5C2.5 1.83696 2.76339 1.20107 3.23223 0.732233C3.70107 0.263392 4.33696 0 5 0ZM5 1C4.80302 1 4.60796 1.0388 4.42597 1.11418C4.24399 1.18956 4.07863 1.30005 3.93934 1.43934C3.80005 1.57863 3.68956 1.74399 3.61418 1.92597C3.5388 2.10796 3.5 2.30302 3.5 2.5C3.5 2.69698 3.5388 2.89204 3.61418 3.07402C3.68956 3.25601 3.80005 3.42137 3.93934 3.56066C4.07863 3.69995 4.24399 3.81044 4.42597 3.88582C4.60796 3.9612 4.80302 4 5 4C5.39782 4 5.77936 3.84196 6.06066 3.56066C6.34196 3.27935 6.5 2.89782 6.5 2.5C6.5 2.10217 6.34196 1.72064 6.06066 1.43934C5.77936 1.15803 5.39782 1 5 1Z" fill="#222222"/>
</svg>
