<svg width="11" height="11" viewBox="0 0 11 11" fill="none" xmlns="http://www.w3.org/2000/svg">
<path d="M7.43013 9.3243H3.0595C1.13205 9.3243 0.546387 8.73863 0.546387 6.81119V6.59266C0.546387 6.41346 0.694988 6.26486 0.874184 6.26486C1.29376 6.26486 1.63904 5.91958 1.63904 5.5C1.63904 5.08042 1.29376 4.73514 0.874184 4.73514C0.694988 4.73514 0.546387 4.58654 0.546387 4.40734V4.18881C0.546387 2.26136 1.13205 1.6757 3.0595 1.6757H7.43013C9.35758 1.6757 9.94324 2.26136 9.94324 4.18881V4.62587C9.94324 4.80507 9.79464 4.95367 9.61544 4.95367C9.19586 4.95367 8.85058 5.29895 8.85058 5.71853C8.85058 6.13811 9.19586 6.48339 9.61544 6.48339C9.79464 6.48339 9.94324 6.63199 9.94324 6.81119C9.94324 8.73863 9.35758 9.3243 7.43013 9.3243ZM1.20198 6.88112C1.21072 8.38461 1.52104 8.6687 3.0595 8.6687H7.43013C8.88992 8.6687 9.24394 8.41084 9.28327 7.09965C8.65827 6.95105 8.19499 6.38724 8.19499 5.71853C8.19499 5.04982 8.66265 4.48601 9.28765 4.33741V4.18881C9.28765 2.62849 8.99044 2.33129 7.43013 2.33129H3.0595C1.52104 2.33129 1.21072 2.61538 1.20198 4.11888C1.82698 4.26748 2.29464 4.83129 2.29464 5.5C2.29464 6.1687 1.82698 6.73252 1.20198 6.88112Z" fill="#1A1A19"/>
<path d="M6.55594 7.1958C6.31118 7.1958 6.1145 6.99913 6.1145 6.75874C6.1145 6.51836 6.31118 6.32168 6.55156 6.32168C6.79195 6.32168 6.98863 6.51836 6.98863 6.75874C6.98863 6.99913 6.80069 7.1958 6.55594 7.1958Z" fill="#1A1A19"/>
<path d="M3.93362 5.01049C3.68887 5.01049 3.49219 4.81381 3.49219 4.57342C3.49219 4.33304 3.68887 4.13636 3.92925 4.13636C4.16964 4.13636 4.36631 4.33304 4.36631 4.57342C4.36631 4.81381 4.17838 5.01049 3.93362 5.01049Z" fill="#1A1A19"/>
<path d="M3.77177 7.43618C3.68873 7.43618 3.60569 7.40559 3.54013 7.34003C3.41338 7.21328 3.41338 7.00349 3.54013 6.87674L6.48156 3.93531C6.60831 3.80856 6.8181 3.80856 6.94485 3.93531C7.0716 4.06206 7.0716 4.27185 6.94485 4.3986L4.00342 7.34003C3.94223 7.40559 3.85481 7.43618 3.77177 7.43618Z" fill="#1A1A19"/>
</svg>
