<svg width="11" height="11" viewBox="0 0 11 11" fill="none" xmlns="http://www.w3.org/2000/svg">
<path d="M5.2448 5.57255C3.85931 5.57255 2.73169 4.44493 2.73169 3.05944C2.73169 1.67395 3.85931 0.546326 5.2448 0.546326C6.63029 0.546326 7.75791 1.67395 7.75791 3.05944C7.75791 4.44493 6.63029 5.57255 5.2448 5.57255ZM5.2448 1.20192C4.22207 1.20192 3.38728 2.03671 3.38728 3.05944C3.38728 4.08217 4.22207 4.91696 5.2448 4.91696C6.26753 4.91696 7.10232 4.08217 7.10232 3.05944C7.10232 2.03671 6.26753 1.20192 5.2448 1.20192Z" fill="#1A1A19"/>
<path d="M8.99913 9.94318C8.81994 9.94318 8.67134 9.79458 8.67134 9.61539C8.67134 8.10752 7.13288 6.88374 5.24476 6.88374C3.35665 6.88374 1.81819 8.10752 1.81819 9.61539C1.81819 9.79458 1.66959 9.94318 1.49039 9.94318C1.3112 9.94318 1.1626 9.79458 1.1626 9.61539C1.1626 7.74913 2.99389 6.22815 5.24476 6.22815C7.49564 6.22815 9.32693 7.74913 9.32693 9.61539C9.32693 9.79458 9.17833 9.94318 8.99913 9.94318Z" fill="#1A1A19"/>
</svg>
