<svg width="11" height="11" viewBox="0 0 11 11" fill="none" xmlns="http://www.w3.org/2000/svg">
<path d="M5.2448 5.8278C3.85931 5.8278 2.73169 4.70018 2.73169 3.31469C2.73169 1.9292 3.85931 0.801575 5.2448 0.801575C6.63029 0.801575 7.75791 1.9292 7.75791 3.31469C7.75791 4.70018 6.63029 5.8278 5.2448 5.8278ZM5.2448 1.45717C4.22207 1.45717 3.38728 2.29196 3.38728 3.31469C3.38728 4.33741 4.22207 5.1722 5.2448 5.1722C6.26753 5.1722 7.10232 4.33741 7.10232 3.31469C7.10232 2.29196 6.26753 1.45717 5.2448 1.45717Z" fill="#1A1A19"/>
<path d="M6.91435 10.1984C6.74826 10.1984 6.59092 10.1372 6.47728 10.0236C6.34179 9.8881 6.2806 9.69143 6.3112 9.48601L6.39424 8.89598C6.41609 8.74301 6.50788 8.56381 6.61715 8.45017L8.16434 6.90298C8.78497 6.28235 9.33131 6.63637 9.59792 6.90298C9.82519 7.13025 9.94319 7.37499 9.94319 7.61974C9.94319 7.86887 9.82956 8.10051 9.59792 8.33216L8.0507 9.87938C7.94143 9.98864 7.75789 10.0804 7.60491 10.1023L7.01486 10.1853C6.9799 10.194 6.94931 10.1984 6.91435 10.1984ZM8.87676 7.21328C8.79808 7.21328 8.72815 7.26574 8.62763 7.36626L7.08043 8.91346C7.06732 8.92657 7.04546 8.97027 7.04546 8.98775L6.96679 9.53408L7.51312 9.45541C7.5306 9.45104 7.5743 9.4292 7.58741 9.41609L9.13463 7.86887C9.20456 7.79894 9.2876 7.69841 9.2876 7.61974C9.2876 7.55418 9.23516 7.46242 9.13463 7.36626C9.02974 7.26137 8.95106 7.21328 8.87676 7.21328Z" fill="#1A1A19"/>
<path d="M9.1434 8.65558C9.11281 8.65558 9.08221 8.65122 9.05598 8.64248C8.47906 8.48077 8.02015 8.02185 7.85844 7.44493C7.81036 7.27011 7.91089 7.09092 8.08572 7.04284C8.26054 6.99476 8.43973 7.09527 8.48781 7.2701C8.58833 7.62849 8.87243 7.91258 9.23082 8.01311C9.40565 8.06118 9.50618 8.24474 9.4581 8.4152C9.41877 8.55943 9.28763 8.65558 9.1434 8.65558Z" fill="#1A1A19"/>
<path d="M1.49039 10.1984C1.3112 10.1984 1.1626 10.0498 1.1626 9.87064C1.1626 8.00438 2.9939 6.4834 5.24478 6.4834C5.72118 6.4834 6.1932 6.55334 6.63463 6.68446C6.80946 6.7369 6.90561 6.92047 6.85317 7.09092C6.80072 7.26575 6.61716 7.3619 6.4467 7.30945C6.06209 7.19582 5.65999 7.13462 5.24478 7.13462C3.35667 7.13462 1.81819 8.35839 1.81819 9.86626C1.81819 10.0498 1.66959 10.1984 1.49039 10.1984Z" fill="#1A1A19"/>
</svg>
